<svg xmlns="http://www.w3.org/2000/svg" width="23" height="23" viewBox="0 0 23 23" fill="none">
  <mask id="mask0_9_57" style="mask-type:alpha" maskUnits="userSpaceOnUse" x="0" y="0" width="23" height="23">
    <rect width="23" height="23" fill="#2A4A62"/>
  </mask>
  <g mask="url(#mask0_9_57)">
    <path d="M14.717 15.4068H16.5566V6.66863H14.717V15.4068ZM3.67925 17.2465C3.17335 17.2465 2.74027 17.0663 2.38001 16.7061C2.01975 16.3458 1.83962 15.9127 1.83962 15.4068V6.66863C1.83962 6.16274 2.01975 5.72966 2.38001 5.3694C2.74027 5.00914 3.17335 4.82901 3.67925 4.82901H16.5566C17.0625 4.82901 17.4956 5.00914 17.8558 5.3694C18.2161 5.72966 18.3962 6.16274 18.3962 6.66863V8.73821H18.8561C19.2394 8.73821 19.5652 8.87235 19.8334 9.14063C20.1017 9.4089 20.2358 9.73467 20.2358 10.1179V11.9575C20.2358 12.3561 20.1017 12.6857 19.8334 12.9463C19.5652 13.207 19.2394 13.3373 18.8561 13.3373H18.3962V15.4068C18.3962 15.9127 18.2161 16.3458 17.8558 16.7061C17.4956 17.0663 17.0625 17.2465 16.5566 17.2465H3.67925Z" fill="white"/>
  </g>
</svg>