<svg xmlns="http://www.w3.org/2000/svg" width="18" height="18" viewBox="0 0 18 18" fill="none">
  <mask id="mask0_4_149" style="mask-type:alpha" maskUnits="userSpaceOnUse" x="0" y="0" width="18" height="18">
    <rect width="18" height="18" fill="#2A4A62"/>
  </mask>
  <g mask="url(#mask0_4_149)">
    <path d="M8.99999 17.475L6.48749 15H2.99999V11.5125L0.524994 9L2.99999 6.4875V3H6.48749L8.99999 0.525002L11.5125 3H15V6.4875L17.475 9L15 11.5125V15H11.5125L8.99999 17.475ZM8.99999 15.375L10.875 13.5H13.5V10.875L15.375 9L13.5 7.125V4.5H10.875L8.99999 2.625L7.12499 4.5H4.49999V7.125L2.62499 9L4.49999 10.875V13.5H7.12499L8.99999 15.375ZM8.99999 12.75C10.0375 12.75 10.9219 12.3844 11.6531 11.6531C12.3844 10.9219 12.75 10.0375 12.75 9C12.75 7.9625 12.3844 7.07813 11.6531 6.34688C10.9219 5.61563 10.0375 5.25 8.99999 5.25V12.75Z" fill="white"/>
  </g>
</svg>