<svg xmlns="http://www.w3.org/2000/svg" width="128" height="128" viewBox="0 0 128 128" fill="none">
  <mask id="mask0_8_89" style="mask-type:alpha" maskUnits="userSpaceOnUse" x="0" y="0" width="128" height="128">
    <rect width="128" height="128" fill="#0C151C"/>
  </mask>
  <g mask="url(#mask0_8_89)">
    <path d="M64 112L56.2667 105.067C47.2889 96.9779 39.8667 90.0002 34 84.1335C28.1333 78.2668 23.4667 73.0002 20 68.3335C16.5333 63.6668 14.1111 59.3779 12.7333 55.4668C11.3556 51.5557 10.6667 47.5557 10.6667 43.4668C10.6667 35.1113 13.4667 28.1335 19.0667 22.5335C24.6667 16.9335 31.6444 14.1335 40 14.1335C44.6222 14.1335 49.0222 15.1113 53.2 17.0668C57.3778 19.0224 60.9778 21.7779 64 25.3335C67.0222 21.7779 70.6222 19.0224 74.8 17.0668C78.9778 15.1113 83.3778 14.1335 88 14.1335C96.3556 14.1335 103.333 16.9335 108.933 22.5335C114.533 28.1335 117.333 35.1113 117.333 43.4668C117.333 47.5557 116.644 51.5557 115.267 55.4668C113.889 59.3779 111.467 63.6668 108 68.3335C104.533 73.0002 99.8667 78.2668 94 84.1335C88.1333 90.0002 80.7111 96.9779 71.7333 105.067L64 112Z" fill="#1DCFE3"/>
  </g>
</svg>