<svg width="87" height="91" viewBox="0 0 87 91" fill="none" xmlns="http://www.w3.org/2000/svg">
<g filter="url(#filter0_d_7_50)">
<rect x="4" width="79" height="83" rx="10" fill="url(#paint0_linear_7_50)"/>
</g>
<mask id="mask0_7_50" style="mask-type:alpha" maskUnits="userSpaceOnUse" x="17" y="15" width="54" height="54">
<rect x="17" y="15" width="54" height="54" fill="#none"/>
</mask>
<g mask="url(#mask0_7_50)">
<path d="M44 62.25L40.7375 59.325C36.95 55.9125 33.8188 52.9688 31.3438 50.4937C28.8688 48.0187 26.9 45.7969 25.4375 43.8281C23.975 41.8594 22.9531 40.05 22.3719 38.4C21.7906 36.75 21.5 35.0625 21.5 33.3375C21.5 29.8125 22.6812 26.8688 25.0438 24.5063C27.4063 22.1438 30.35 20.9625 33.875 20.9625C35.825 20.9625 37.6812 21.375 39.4438 22.2C41.2062 23.025 42.725 24.1875 44 25.6875C45.275 24.1875 46.7938 23.025 48.5563 22.2C50.3188 21.375 52.175 20.9625 54.125 20.9625C57.65 20.9625 60.5938 22.1438 62.9563 24.5063C65.3188 26.8688 66.5 29.8125 66.5 33.3375C66.5 35.0625 66.2094 36.75 65.6281 38.4C65.0469 40.05 64.025 41.8594 62.5625 43.8281C61.1 45.7969 59.1312 48.0187 56.6562 50.4937C54.1813 52.9688 51.05 55.9125 47.2625 59.325L44 62.25Z" fill="white"/>
</g>
<defs>
<filter id="filter0_d_7_50" x="0" y="0" width="87" height="91" filterUnits="userSpaceOnUse" color-interpolation-filters="sRGB">
<feFlood flood-opacity="0" result="BackgroundImageFix"/>
<feColorMatrix in="SourceAlpha" type="matrix" values="0 0 0 0 0 0 0 0 0 0 0 0 0 0 0 0 0 0 127 0" result="hardAlpha"/>
<feOffset dy="4"/>
<feGaussianBlur stdDeviation="2"/>
<feComposite in2="hardAlpha" operator="out"/>
<feColorMatrix type="matrix" values="0 0 0 0 0 0 0 0 0 0 0 0 0 0 0 0 0 0 0.25 0"/>
<feBlend mode="normal" in2="BackgroundImageFix" result="effect1_dropShadow_7_50"/>
<feBlend mode="normal" in="SourceGraphic" in2="effect1_dropShadow_7_50" result="shape"/>
</filter>
<linearGradient id="paint0_linear_7_50" x1="-4.51961" y1="27.0842" x2="84.7617" y2="52.2991" gradientUnits="userSpaceOnUse">
<stop offset="0.281949" stop-color="#1DCFE3"/>
<stop offset="1" stop-color="#285D9B"/>
</linearGradient>
</defs>
</svg>
