<svg width="122" height="122" viewBox="0 0 122 122" fill="none" xmlns="http://www.w3.org/2000/svg">
<mask id="mask0_8_37" style="mask-type:alpha" maskUnits="userSpaceOnUse" x="0" y="0" width="122" height="122">
<rect width="122" height="122" fill="#0C151C"/>
</mask>
<g mask="url(#mask0_8_37)">
<path d="M54.3917 64.6854L50.0708 58.2042C49.6472 57.5264 49.0542 56.9757 48.2917 56.5521C47.5292 56.1285 46.7243 55.9167 45.8771 55.9167H12.5812C11.6493 53.7139 11.0139 51.5958 10.675 49.5625C10.3361 47.5292 10.1667 45.4111 10.1667 43.2083C10.1667 35.2444 12.8354 28.5938 18.1729 23.2562C23.5104 17.9187 30.1611 15.25 38.125 15.25C42.5306 15.25 46.7243 16.1819 50.7062 18.0458C54.6882 19.9097 58.1194 22.5361 61 25.925C63.8806 22.5361 67.3118 19.9097 71.2938 18.0458C75.2757 16.1819 79.4694 15.25 83.875 15.25C91.8389 15.25 98.4896 17.9187 103.827 23.2562C109.165 28.5938 111.833 35.2444 111.833 43.2083C111.833 45.4111 111.664 47.5292 111.325 49.5625C110.986 51.5958 110.351 53.7139 109.419 55.9167H79.1729L70.4042 42.9542C69.8958 42.1917 69.2392 41.6198 68.4344 41.2385C67.6295 40.8573 66.7611 40.6667 65.8292 40.6667C64.7278 40.6667 63.7747 40.9844 62.9698 41.6198C62.1649 42.2552 61.5931 43.0812 61.2542 44.0979L54.3917 64.6854ZM61 108.529L53.6292 101.921C44.7333 93.9569 37.4472 87.1368 31.7708 81.4604C26.0944 75.784 21.6465 70.6583 18.4271 66.0833H42.8271L51.5958 79.0458C52.1042 79.8083 52.7608 80.3802 53.5656 80.7615C54.3705 81.1427 55.2389 81.3333 56.1708 81.3333C57.2722 81.3333 58.2253 81.0156 59.0302 80.3802C59.8351 79.7448 60.4069 78.9187 60.7458 77.9021L67.6083 57.1875L72.0563 63.7958C72.4799 64.4736 73.0729 65.0243 73.8354 65.4479C74.5979 65.8715 75.4028 66.0833 76.25 66.0833H103.573C100.353 70.6583 95.9056 75.784 90.2292 81.4604C84.5528 87.1368 77.2667 93.9569 68.3708 101.921L61 108.529Z" fill="#1DCFE3"/>
</g>
</svg>
