<svg xmlns="http://www.w3.org/2000/svg" width="16" height="16" viewBox="0 0 16 16" fill="none">
  <mask id="mask0_4_137" style="mask-type:alpha" maskUnits="userSpaceOnUse" x="0" y="0" width="16" height="16">
    <rect width="16" height="16" fill="#2A4A62"/>
  </mask>
  <g mask="url(#mask0_4_137)">
    <path d="M8 14C7.53333 14 7.13889 13.8389 6.81667 13.5167C6.49444 13.1944 6.33333 12.8 6.33333 12.3333C6.33333 11.8667 6.49444 11.4722 6.81667 11.15C7.13889 10.8278 7.53333 10.6667 8 10.6667C8.46667 10.6667 8.86111 10.8278 9.18333 11.15C9.50556 11.4722 9.66667 11.8667 9.66667 12.3333C9.66667 12.8 9.50556 13.1944 9.18333 13.5167C8.86111 13.8389 8.46667 14 8 14ZM4.23333 10.2333L2.83333 8.8C3.48889 8.14444 4.25833 7.625 5.14167 7.24167C6.025 6.85833 6.97778 6.66667 8 6.66667C9.02222 6.66667 9.975 6.86111 10.8583 7.25C11.7417 7.63889 12.5111 8.16667 13.1667 8.83333L11.7667 10.2333C11.2778 9.74444 10.7111 9.36111 10.0667 9.08333C9.42222 8.80556 8.73333 8.66667 8 8.66667C7.26667 8.66667 6.57778 8.80556 5.93333 9.08333C5.28889 9.36111 4.72222 9.74444 4.23333 10.2333ZM1.4 7.4L0 6C1.02222 4.95556 2.21667 4.13889 3.58333 3.55C4.95 2.96111 6.42222 2.66667 8 2.66667C9.57778 2.66667 11.05 2.96111 12.4167 3.55C13.7833 4.13889 14.9778 4.95556 16 6L14.6 7.4C13.7444 6.54444 12.7528 5.875 11.625 5.39167C10.4972 4.90833 9.28889 4.66667 8 4.66667C6.71111 4.66667 5.50278 4.90833 4.375 5.39167C3.24722 5.875 2.25556 6.54444 1.4 7.4Z" fill="white"/>
  </g>
</svg>